<svg t="1637369066205" class="icon" viewBox="0 0 1024 1024" version="1.1" xmlns="http://www.w3.org/2000/svg" p-id="7276" width="200" height="200"><path d="M739.584 608.768v-5.76a45.504 45.504 0 0 1 91.008 0v5.76c16.64 4.288 32.512 10.88 46.976 19.456l4.096-4.096a45.504 45.504 0 0 1 64.32 64.384l-4.096 4.096c8.576 14.464 15.232 30.272 19.52 46.976h5.76a45.504 45.504 0 0 1 0 91.008h-5.76c-4.288 16.64-10.944 32.512-19.52 46.976l4.096 4.096a45.504 45.504 0 1 1-64.384 64.32l-4.032-4.096c-14.72 8.704-30.464 15.232-46.976 19.52v5.76a45.504 45.504 0 0 1-91.008 0v-5.76a180.928 180.928 0 0 1-46.976-19.52l-4.096 4.096a45.504 45.504 0 0 1-64.384-64.32l4.096-4.096a180.928 180.928 0 0 1-19.456-46.976h-5.76a45.504 45.504 0 0 1 0-91.008h5.76c4.288-16.704 10.88-32.512 19.456-46.976l-4.096-4.096a45.504 45.504 0 0 1 64.384-64.384l4.096 4.096c14.656-8.64 30.464-15.232 46.976-19.456z m-259.84 267.328H56.832a45.504 45.504 0 0 1-45.504-45.504v-45.504a364.096 364.096 0 0 1 606.784-271.424 318.4 318.4 0 0 0-138.496 362.432z m-104.32-455.104c-100.48 0-182.016-91.712-182.016-204.8 0-113.088 81.472-204.8 182.08-204.8 100.544 0 182.016 91.712 182.016 204.8 0 113.088-81.472 204.8-182.016 204.8z m409.6 455.04a91.008 91.008 0 1 0 0-182.016 91.008 91.008 0 0 0 0 182.08z" p-id="7277"></path></svg>